<svg width="21" height="20" viewBox="0 0 21 20" fill="none" xmlns="http://www.w3.org/2000/svg">
<path d="M0.890015 4.25293V15.7469H6.49401V15.1529H1.48401V4.84693H20.296V15.1529H7.28601V15.7469H20.89V4.25293H0.890015Z" fill="#1DB96F"/>
<path d="M17.71 14.3099C17.7819 13.8738 17.9888 13.4711 18.3014 13.1587C18.6141 12.8462 19.0168 12.6396 19.453 12.5679L19.702 12.5269V7.47389L19.453 7.43289C19.0169 7.36096 18.6142 7.15412 18.3018 6.84147C17.9893 6.52882 17.7827 6.12608 17.711 5.68989L17.67 5.44189H4.11L4.069 5.68989C3.99732 6.12608 3.79071 6.52882 3.47824 6.84147C3.16576 7.15412 2.76314 7.36096 2.327 7.43289L2.078 7.47289V12.5269L2.327 12.5669C2.76314 12.6388 3.16576 12.8457 3.47824 13.1583C3.79071 13.471 3.99732 13.8737 4.069 14.3099L4.109 14.5589H17.669L17.71 14.3099ZM4.602 13.9649C4.4801 13.5011 4.23716 13.078 3.89805 12.7388C3.55894 12.3997 3.13583 12.1568 2.672 12.0349V7.96489C3.13583 7.84299 3.55894 7.60006 3.89805 7.26094C4.23716 6.92183 4.4801 6.49872 4.602 6.03489H8.642C7.94094 6.43272 7.35782 7.00923 6.95205 7.70573C6.54627 8.40223 6.33233 9.19382 6.332 9.99989C6.332 11.6969 7.263 13.1799 8.642 13.9649H4.602ZM6.925 9.99989C6.92633 8.94881 7.34452 7.94117 8.08785 7.19803C8.83117 6.4549 9.83892 6.03695 10.89 6.03589C11.9409 6.03722 12.9484 6.45528 13.6915 7.19838C14.4346 7.94149 14.8527 8.94898 14.854 9.99989C14.8529 11.051 14.435 12.0587 13.6919 12.8021C12.9487 13.5454 11.9411 13.9636 10.89 13.9649C9.83874 13.9638 8.83085 13.5458 8.08749 12.8024C7.34414 12.0591 6.92606 11.0512 6.925 9.99989ZM13.138 13.9649C13.839 13.567 14.4221 12.9905 14.8278 12.294C15.2336 11.5975 15.4476 10.806 15.448 9.99989C15.448 8.30289 14.517 6.81989 13.138 6.03589H17.178C17.2999 6.49972 17.5428 6.92283 17.882 7.26194C18.2211 7.60106 18.6442 7.84399 19.108 7.96589V12.0349C18.6442 12.1568 18.2211 12.3997 17.882 12.7388C17.5428 13.078 17.2999 13.5011 17.178 13.9649H13.138Z" fill="#1DB96F"/>
<path d="M4.50203 9.00989C4.24717 9.02135 4.00654 9.13066 3.83024 9.31506C3.65393 9.49947 3.55554 9.74477 3.55554 9.99989C3.55554 10.255 3.65393 10.5003 3.83024 10.6847C4.00654 10.8691 4.24717 10.9784 4.50203 10.9899C4.7569 10.9784 4.99753 10.8691 5.17383 10.6847C5.35013 10.5003 5.44853 10.255 5.44853 9.99989C5.44853 9.74477 5.35013 9.49947 5.17383 9.31506C4.99753 9.13066 4.7569 9.02135 4.50203 9.00989ZM4.50203 10.3959C4.44829 10.3986 4.39456 10.3903 4.3441 10.3716C4.29365 10.3529 4.24752 10.3242 4.20853 10.2871C4.16953 10.25 4.13849 10.2054 4.11727 10.1559C4.09605 10.1065 4.08511 10.0532 4.08511 9.99939C4.08511 9.94558 4.09605 9.89233 4.11727 9.84288C4.13849 9.79342 4.16953 9.7488 4.20853 9.71171C4.24752 9.67463 4.29365 9.64586 4.3441 9.62715C4.39456 9.60845 4.44829 9.60019 4.50203 9.60289C4.60375 9.608 4.69961 9.652 4.76979 9.7258C4.83998 9.7996 4.87911 9.89755 4.87911 9.99939C4.87911 10.1012 4.83998 10.1992 4.76979 10.273C4.69961 10.3468 4.60375 10.3908 4.50203 10.3959ZM18.268 9.99989C18.2566 9.74502 18.1473 9.5044 17.9629 9.32809C17.7785 9.15179 17.5332 9.0534 17.278 9.0534C17.0229 9.0534 16.7776 9.15179 16.5932 9.32809C16.4088 9.5044 16.2995 9.74502 16.288 9.99989C16.2995 10.2548 16.4088 10.4954 16.5932 10.6717C16.7776 10.848 17.0229 10.9464 17.278 10.9464C17.5332 10.9464 17.7785 10.848 17.9629 10.6717C18.1473 10.4954 18.2566 10.2548 18.268 9.99989ZM17.278 10.3959C17.2243 10.3985 17.1706 10.3902 17.1201 10.3714C17.0697 10.3527 17.0236 10.3238 16.9847 10.2867C16.9457 10.2496 16.9147 10.2049 16.8936 10.1554C16.8724 10.1059 16.8616 10.0527 16.8616 9.99886C16.8617 9.94505 16.8727 9.89182 16.894 9.84239C16.9153 9.79297 16.9464 9.74838 16.9854 9.71135C17.0244 9.67431 17.0706 9.6456 17.1211 9.62696C17.1716 9.60831 17.2253 9.60012 17.279 9.60289C17.3807 9.608 17.4766 9.652 17.5468 9.7258C17.617 9.7996 17.6561 9.89755 17.6561 9.99939C17.6561 10.1012 17.617 10.1992 17.5468 10.273C17.4766 10.3468 17.3797 10.3908 17.278 10.3959ZM12.117 8.84389H12.711C12.711 8.01589 12.147 7.49089 11.187 7.40389V6.71289H10.593V7.40289C9.63303 7.49089 9.07003 8.01589 9.07003 8.84289C9.07003 9.67189 9.63303 10.1959 10.593 10.2829V12.0009C9.97603 11.9359 9.66303 11.6529 9.66303 11.1559H9.07003C9.07003 11.9839 9.63303 12.5089 10.593 12.5959V13.2869H11.187V12.5969C12.147 12.5089 12.711 11.9839 12.711 11.1569C12.711 10.3279 12.147 9.80389 11.187 9.71689V7.99789C11.804 8.06289 12.117 8.34789 12.117 8.84389ZM10.593 9.68789C9.97603 9.62289 9.66303 9.33989 9.66303 8.84389C9.66303 8.34789 9.97603 8.06389 10.593 7.99889V9.68889V9.68789ZM12.117 11.1559C12.117 11.6519 11.804 11.9359 11.187 12.0009V10.3109C11.804 10.3769 12.117 10.6609 12.117 11.1559Z" fill="#1DB96F"/>
</svg>
