<svg width="18" height="18" viewBox="0 0 18 18" fill="none" xmlns="http://www.w3.org/2000/svg">
<path d="M9.30999 0.5C8.04796 0.501324 6.83801 1.00325 5.94562 1.89563C5.05323 2.78802 4.55131 3.99798 4.54999 5.26V7.59C4.54999 7.75 4.67899 7.878 4.83799 7.878H6.43299C6.47085 7.87813 6.50836 7.87077 6.54336 7.85635C6.57836 7.84192 6.61016 7.82071 6.63693 7.79394C6.6637 7.76717 6.68491 7.73537 6.69933 7.70037C6.71376 7.66537 6.72112 7.62786 6.72099 7.59V5.26C6.72152 4.57343 6.99442 3.91511 7.47981 3.42953C7.9652 2.94396 8.62341 2.67079 9.30999 2.67C9.99674 2.67053 10.6552 2.94357 11.1408 3.42918C11.6264 3.91478 11.8995 4.57325 11.9 5.26V7.59C11.9 7.75 12.028 7.878 12.187 7.878H13.782C13.8198 7.87813 13.8574 7.87077 13.8924 7.85635C13.9274 7.84192 13.9592 7.82071 13.9859 7.79394C14.0127 7.76717 14.0339 7.73537 14.0483 7.70037C14.0628 7.66537 14.0701 7.62786 14.07 7.59V5.26C14.0687 3.99798 13.5667 2.78802 12.6744 1.89563C11.782 1.00325 10.572 0.501324 9.30999 0.5ZM13.495 7.303H12.474V5.26C12.4729 4.42118 12.1392 3.61702 11.5461 3.02388C10.953 2.43075 10.1488 2.09706 9.30999 2.096C8.47117 2.09706 7.66701 2.43075 7.07387 3.02388C6.48074 3.61702 6.14705 4.42118 6.14599 5.26V7.303H5.12599V5.26C5.12731 4.15065 5.56852 3.0871 6.35285 2.30257C7.13719 1.51805 8.20064 1.07659 9.30999 1.075C10.4195 1.07632 11.4832 1.51767 12.2678 2.30222C13.0523 3.08677 13.4937 4.15048 13.495 5.26V7.303Z" fill="#757575"/>
<path d="M14.444 7.30298H4.17598C3.49498 7.30298 2.94098 7.85698 2.94098 8.53798V16.265C2.94098 16.946 3.49498 17.5 4.17598 17.5H14.444C15.124 17.5 15.679 16.946 15.679 16.265V8.53798C15.679 7.85698 15.125 7.30298 14.444 7.30298ZM15.104 16.265C15.104 16.44 15.0344 16.6079 14.9107 16.7317C14.7869 16.8554 14.619 16.925 14.444 16.925H4.17598C4.08931 16.925 4.00348 16.9079 3.92341 16.8747C3.84333 16.8416 3.77058 16.793 3.70929 16.7317C3.648 16.6704 3.59939 16.5976 3.56622 16.5175C3.53305 16.4375 3.51598 16.3517 3.51598 16.265V8.53798C3.51598 8.45131 3.53305 8.36548 3.56622 8.28541C3.59939 8.20533 3.648 8.13257 3.70929 8.07129C3.77058 8.01 3.84333 7.96139 3.92341 7.92822C4.00348 7.89505 4.08931 7.87798 4.17598 7.87798H14.444C14.619 7.87798 14.7869 7.94751 14.9107 8.07129C15.0344 8.19506 15.104 8.36294 15.104 8.53798V16.265Z" fill="#757575"/>
<path d="M10.276 12.7779C10.612 12.4949 10.808 12.0809 10.808 11.6369C10.8075 11.2398 10.6495 10.8591 10.3687 10.5783C10.0879 10.2974 9.70714 10.1394 9.31001 10.1389C8.91288 10.1394 8.53217 10.2974 8.25135 10.5783C7.97054 10.8591 7.81254 11.2398 7.81201 11.6369C7.81201 12.0809 8.00701 12.4949 8.34301 12.7779L8.02001 14.3179C8.01123 14.3597 8.01189 14.4029 8.02194 14.4444C8.03199 14.486 8.05117 14.5247 8.0781 14.5578C8.10502 14.591 8.139 14.6177 8.17757 14.6361C8.21613 14.6544 8.25831 14.6639 8.30101 14.6639H10.318C10.3608 14.664 10.4031 14.6544 10.4418 14.636C10.4804 14.6176 10.5145 14.5908 10.5414 14.5575C10.5683 14.5243 10.5875 14.4854 10.5975 14.4438C10.6074 14.4021 10.608 14.3588 10.599 14.3169L10.276 12.7779ZM9.80301 12.4139C9.75356 12.4453 9.71489 12.491 9.69219 12.545C9.66948 12.599 9.66384 12.6586 9.67601 12.7159L9.96401 14.0889H8.65501L8.94401 12.7159C8.95618 12.6586 8.95054 12.599 8.92784 12.545C8.90514 12.491 8.86646 12.4453 8.81701 12.4139C8.68553 12.3313 8.57713 12.2167 8.50193 12.0808C8.42673 11.9449 8.3872 11.7922 8.38701 11.6369C8.39806 11.3996 8.50014 11.1756 8.67202 11.0115C8.84391 10.8474 9.07239 10.7559 9.31001 10.7559C9.54763 10.7559 9.77612 10.8474 9.948 11.0115C10.1199 11.1756 10.222 11.3996 10.233 11.6369C10.233 11.9519 10.072 12.2429 9.80301 12.4139Z" fill="#757575"/>
</svg>
