<svg width="15" height="14" viewBox="0 0 15 14" fill="none" xmlns="http://www.w3.org/2000/svg">
<path d="M7.38895 7.27C5.38895 7.27 3.75395 5.635 3.75395 3.635C3.75395 1.635 5.38895 0 7.38895 0C9.38895 0 11.024 1.635 11.024 3.635C11.024 5.635 9.38895 7.27 7.38895 7.27ZM1.14995 10.175C1.24595 9.936 1.37295 9.715 1.51595 9.508C1.86906 8.97814 2.33019 8.5289 2.86908 8.18974C3.40798 7.85058 4.01249 7.62916 4.64295 7.54C4.80457 7.51943 4.96813 7.55855 5.10295 7.65C5.76995 8.143 6.56295 8.397 7.38895 8.397C8.21395 8.397 9.00795 8.143 9.67495 7.651C9.73999 7.60207 9.81435 7.56698 9.89347 7.54789C9.97258 7.5288 10.0548 7.52611 10.135 7.54C10.766 7.62713 11.3713 7.8477 11.9105 8.18704C12.4497 8.52638 12.9104 8.9767 13.262 9.508C13.405 9.714 13.532 9.952 13.627 10.175C13.674 10.27 13.659 10.381 13.611 10.476C13.4809 10.6961 13.3377 10.9082 13.182 11.111C12.9643 11.4077 12.72 11.6838 12.452 11.936C12.2196 12.1599 11.9759 12.3719 11.722 12.571C10.4754 13.5018 8.96066 14.0032 7.40495 14C5.84892 14.0034 4.33377 13.502 3.08695 12.571C2.82921 12.3765 2.58529 12.1643 2.35695 11.936C1.91 11.5007 1.52051 11.0101 1.19795 10.476C1.11895 10.381 1.10295 10.27 1.15095 10.174L1.14995 10.175Z" fill="white"/>
</svg>
