<svg width="44" height="44" viewBox="0 0 44 44" fill="none" xmlns="http://www.w3.org/2000/svg">
<path d="M40.3334 21.9998C40.3334 32.1244 32.1247 40.3332 22.0001 40.3332C11.8755 40.3332 3.66675 32.1244 3.66675 21.9998C3.66675 11.8753 11.8755 3.6665 22.0001 3.6665C32.1247 3.6665 40.3334 11.8753 40.3334 21.9998Z" fill="#1A56DB"/>
<path d="M40.3334 21.9998C40.3334 32.1244 32.1247 40.3332 22.0001 40.3332C11.8755 40.3332 3.66675 32.1244 3.66675 21.9998C3.66675 11.8753 11.8755 3.6665 22.0001 3.6665C32.1247 3.6665 40.3334 11.8753 40.3334 21.9998Z" fill="url(#paint0_radial_35_58)" style="mix-blend-mode:overlay"/>
<path d="M19.5186 29.9814L12.1853 22.6481C11.8269 22.2897 11.8269 21.7094 12.1853 21.3519L13.4815 20.0558C13.8399 19.6973 14.4202 19.6973 14.7776 20.0558L20.1667 25.4448L30.1392 15.4724C30.4976 15.114 31.0778 15.114 31.4353 15.4724L32.7315 16.7686C33.0899 17.127 33.0899 17.7073 32.7315 18.0648L20.8148 29.9814C20.4573 30.3398 19.8761 30.3398 19.5186 29.9814Z" fill="white"/>
<defs>
<radialGradient id="paint0_radial_35_58" cx="0" cy="0" r="1" gradientUnits="userSpaceOnUse" gradientTransform="translate(42.7901 4.77092) rotate(140.644) scale(55.1505 77.2546)">
<stop stop-color="white"/>
<stop offset="1" stop-color="white" stop-opacity="0"/>
</radialGradient>
</defs>
</svg>
