<svg width="44" height="44" viewBox="0 0 44 44" fill="none" xmlns="http://www.w3.org/2000/svg">
<path d="M40.3332 21.9998C40.3332 32.1244 32.1244 40.3332 21.9998 40.3332C11.8753 40.3332 3.6665 32.1244 3.6665 21.9998C3.6665 11.8753 11.8753 3.6665 21.9998 3.6665C32.1244 3.6665 40.3332 11.8753 40.3332 21.9998Z" fill="#FA4750"/>
<path d="M40.3332 21.9998C40.3332 32.1244 32.1244 40.3332 21.9998 40.3332C11.8753 40.3332 3.6665 32.1244 3.6665 21.9998C3.6665 11.8753 11.8753 3.6665 21.9998 3.6665C32.1244 3.6665 40.3332 11.8753 40.3332 21.9998Z" fill="url(#paint0_radial_35_130)" style="mix-blend-mode:overlay"/>
<path opacity="0.05" d="M30.4261 26.5375L25.8895 22L30.427 17.4625C31.1429 16.7466 31.1429 15.5861 30.427 14.8702L29.1308 13.574C28.4149 12.8581 27.2544 12.8581 26.5385 13.574L22 18.1106L17.4625 13.5731C16.7466 12.8572 15.5861 12.8572 14.8702 13.5731L13.574 14.8692C12.8581 15.5852 12.8581 16.7457 13.574 17.4616L18.1115 21.9991L13.574 26.5366C12.8581 27.2525 12.8581 28.413 13.574 29.1289L14.8702 30.4251C15.5861 31.141 16.7466 31.141 17.4625 30.4251L22 25.8876L26.5375 30.4251C27.2535 31.141 28.414 31.141 29.1299 30.4251L30.4261 29.1289C31.142 28.4139 31.142 27.2534 30.4261 26.5375Z" fill="black"/>
<path opacity="0.07" d="M30.1023 26.861L25.2413 21.9999L30.1023 17.1388C30.6395 16.6017 30.6395 15.7308 30.1023 15.1946L28.8062 13.8984C28.269 13.3613 27.3982 13.3613 26.8619 13.8984L21.9999 18.7586L17.1388 13.8975C16.6017 13.3603 15.7308 13.3603 15.1946 13.8975L13.8984 15.1937C13.3613 15.7308 13.3613 16.6017 13.8984 17.1379L18.7586 21.9999L13.8975 26.861C13.3603 27.3982 13.3603 28.269 13.8975 28.8053L15.1937 30.1014C15.7308 30.6386 16.6017 30.6386 17.1379 30.1014L21.9999 25.2413L26.861 30.1023C27.3982 30.6395 28.269 30.6395 28.8053 30.1023L30.1014 28.8062C30.6395 28.269 30.6395 27.3982 30.1023 26.861Z" fill="black"/>
<path d="M28.4816 14.2219L29.7778 15.5181C30.1362 15.8765 30.1362 16.4568 29.7778 16.8143L16.8143 29.7778C16.4559 30.1362 15.8756 30.1362 15.5181 29.7778L14.2219 28.4816C13.8635 28.1232 13.8635 27.5429 14.2219 27.1854L27.1854 14.2219C27.5429 13.8635 28.1241 13.8635 28.4816 14.2219Z" fill="white"/>
<path d="M29.7778 28.4816L28.4816 29.7778C28.1232 30.1362 27.5429 30.1362 27.1854 29.7778L14.2219 16.8143C13.8635 16.4559 13.8635 15.8756 14.2219 15.5181L15.5181 14.2219C15.8765 13.8635 16.4568 13.8635 16.8143 14.2219L29.7778 27.1854C30.1362 27.5429 30.1362 28.1241 29.7778 28.4816Z" fill="white"/>
<defs>
<radialGradient id="paint0_radial_35_130" cx="0" cy="0" r="1" gradientUnits="userSpaceOnUse" gradientTransform="translate(42.7898 4.77092) rotate(140.644) scale(55.1505 77.2546)">
<stop stop-color="white" stop-opacity="0.5"/>
<stop offset="1" stop-color="white" stop-opacity="0"/>
</radialGradient>
</defs>
</svg>
